# xmcd
#
# Track frame offsets: 
#        150
#        48557
#        68396
#        103782
#        137343
#        159649
#        204979
#        244082
#        276991
#        319774
#
# Disc length: 4716 seconds
#
# Revision: 0
# Processed by: cddbd v1.5.1PL2 Copyright (c) Steve Scherf et al.
# Submitted via: ExactAudioCopy v0.95b3
#
DISCID=88126a0a
DTITLE=Susanna Tamaro - Antworte mir
DYEAR=1900
DGENRE=Lesung
TTITLE0=Antworte mir CD5
TTITLE1=Antworte mir CD5
TTITLE2=Antworte mir CD5
TTITLE3=Antworte mir CD5
TTITLE4=Antworte mir CD5
TTITLE5=Antworte mir CD5
TTITLE6=Antworte mir CD5
TTITLE7=Antworte mir CD5
TTITLE8=Antworte mir CD5
TTITLE9=Antworte mir CD5
EXTD=
EXTT0=
EXTT1=
EXTT2=
EXTT3=
EXTT4=
EXTT5=
EXTT6=
EXTT7=
EXTT8=
EXTT9=
PLAYORDER=
